Coordinates
version=1
nRows=9
nColumns=42
inDegrees=yes

Units are S.I. units (second, meters, Newtons, ...)
If the header above contains a line with 'inDegrees', this indicates whether rotational values are in degrees (yes) or radians (no).

endheader
time	pelvis_tilt	pelvis_list	pelvis_rotation	pelvis_tx	pelvis_ty	pelvis_tz	hip_flexion_r	hip_adduction_r	hip_rotation_r	knee_angle_r	knee_angle_r_beta	ankle_angle_r	subtalar_angle_r	mtp_angle_r	hip_flexion_l	hip_adduction_l	hip_rotation_l	knee_angle_l	knee_angle_l_beta	ankle_angle_l	subtalar_angle_l	mtp_angle_l	lumbar_extension	lumbar_bending	lumbar_rotation	sh_tx_r	sh_ty_r	sh_tz_r	sh_plane_elev_r	sh_elev_r	sh_axial_rot_r	elbow_flex_r	pro_sup_r	sh_tx_l	sh_ty_l	sh_tz_l	sh_plane_elev_l	sh_elev_l	sh_axial_rot_l	elbow_flex_l	pro_sup_l
      2.33333330	     -7.70529762	     -0.51373784	     -1.88584368	      0.30908958	      0.92743878	     -0.01625182	      6.21713495	     -6.34054755	    -10.69048459	      2.43363362	      0.04247492	      2.64147410	     -0.24518603	     -7.49999987	      6.51328436	     -4.50483073	    -11.81856187	      0.76915390	      0.01342427	      6.31680690	     -0.89097018	     -7.49999987	      6.39787073	      2.97755807	     -4.63648412	     -0.00575638	     -0.01444530	     -0.00535430	     -1.06564939	      8.26807162	     -1.82485042	     28.46828549	    104.85301685	     -0.00618002	      0.01896338	     -0.00495747	     79.94783128	     74.21501226	    -21.27178323	     10.91216038	      2.84675386
      2.35000000	     -7.66591574	     -0.55506936	     -1.80979005	      0.30912358	      0.92719073	     -0.01624933	      6.18840494	     -6.32447376	    -10.72068972	      2.47743347	      0.04323937	      2.79067548	     -0.19002947	     -7.49999987	      6.47479663	     -4.53458844	    -11.73753342	      0.76308759	      0.01331839	      6.43643738	     -0.94408650	     -7.49999987	      6.26994958	      3.12057811	     -4.69274842	     -0.00562939	     -0.01409786	     -0.00531593	     -1.15399518	      8.30909684	     -1.98559703	     28.54788544	    105.96509604	     -0.00634973	      0.02028493	     -0.00489481	     79.60773316	     74.30390713	    -18.65502438	     10.76379064	      2.77982575
      2.36666670	     -7.86814289	     -0.60761323	     -1.67467916	      0.30867821	      0.92681479	     -0.01659081	      6.62676971	     -6.31457509	    -10.76164327	      2.91494029	      0.05087531	      3.04586274	     -0.20346256	     -7.49999987	      7.03112518	     -4.62439216	    -11.60609616	      1.31686504	      0.02298363	      6.69561136	     -1.16286841	     -7.49999987	      6.39832119	      3.58229872	     -5.09104289	     -0.00489947	     -0.01093140	     -0.00534283	      0.24576458	      8.68620548	     -1.06158231	     28.40553310	    100.41202806	     -0.00745743	      0.02100349	     -0.00493982	     78.28286434	     74.48545155	    -20.38951725	     13.24715316	      6.19231176
      2.38333330	     -7.72197073	     -0.60911391	     -1.51395734	      0.30920336	      0.92691842	     -0.01642698	      6.18211561	     -6.25976392	    -10.86678025	      2.44774480	      0.04272121	      2.92317163	     -0.06830320	     -7.49999987	      6.64451162	     -4.55277632	    -11.56888808	      0.77898562	      0.01359586	      6.50562945	     -0.97845538	     -7.49999987	      6.12183842	      3.28928962	     -4.84964748	     -0.00598121	     -0.01354113	     -0.00530985	     -1.47762663	      8.39373627	     -1.44822869	     28.78237333	    107.09267182	     -0.00732528	      0.02112143	     -0.00478372	     79.30661078	     75.15234765	    -15.27917367	     10.45695477	      2.70870348
      2.40000000	     -7.86716442	     -0.64288175	     -1.39662938	      0.30866712	      0.92664796	     -0.01665973	      6.58139583	     -6.28969337	    -10.87338128	      2.91982150	      0.05096050	      3.24753111	      0.00823976	     -7.49999987	      7.10751981	     -4.62086691	    -11.58596049	      1.32195486	      0.02307246	      6.80040649	     -1.08568171	     -7.49999987	      6.17309766	      3.72522480	     -4.97805559	     -0.00596141	     -0.01025916	     -0.00533441	     -0.19310174	      8.75219910	     -0.52605648	     28.63967876	    100.39653861	     -0.00740948	      0.02214949	     -0.00491391	     78.13259939	     75.44412477	    -18.29104339	     12.64516701	      6.07200675
      2.41666670	     -7.69038484	     -0.63093667	     -1.27893057	      0.30915211	      0.92999511	     -0.01661820	      6.12492898	     -6.25477742	    -10.89052864	      2.44690695	      0.04270658	      3.08402688	      0.16040426	     -7.49999987	      6.65205651	     -4.53360939	    -11.67716432	      0.77447461	      0.01351713	      6.63038944	     -0.77684246	     -7.49999987	      5.98740187	      3.45889485	     -4.69672550	     -0.00701863	     -0.01299807	     -0.00531252	     -2.40739346	      8.38136562	     -0.91268098	     29.04809750	    108.17668867	     -0.00803184	      0.02228312	     -0.00475685	     78.89897706	     75.84382856	    -13.86895947	     10.66906080	      2.69907115
      2.43333330	     -7.55429113	     -0.60886309	     -1.16181568	      0.30909287	      0.93271420	     -0.01661195	      5.94214938	     -6.27706205	    -10.88148022	      2.37760860	      0.04149710	      3.06064164	      0.26973429	     -7.49999987	      6.51355204	     -4.47938908	    -11.68850553	      0.75166679	      0.01311906	      6.59624171	     -0.78891373	     -7.49999987	      5.75833049	      3.49027624	     -4.62073565	     -0.00808601	     -0.01276978	     -0.00537944	     -1.04940382	      8.53412842	     -0.54770982	     28.60093828	    102.82617990	     -0.00811186	      0.02258577	     -0.00484321	     78.74659014	     76.18958493	    -15.88277975	     11.40944644	      2.62247763
      2.45000000	     -7.41476427	     -0.60350196	     -1.04394782	      0.30891735	      0.93222775	     -0.01657285	      5.74407046	     -6.28052241	    -10.94636089	      2.30684685	      0.04026207	      3.08836144	      0.39180746	     -7.49999987	      6.35569495	     -4.45515864	    -11.73443530	      0.75891820	      0.01324562	      6.57510133	     -0.55714111	     -7.49999987	      5.62483208	      3.52853778	     -4.85071842	     -0.00726282	     -0.01276074	     -0.00536421	     -2.56065634	      8.28235182	     -1.09610875	     28.93829110	    108.38373859	     -0.00846491	      0.02229382	     -0.00472352	     78.79038487	     76.51420288	    -12.30146290	     10.15303220	      2.67058473
      2.46666670	     -7.26069120	     -0.59098018	     -0.91443013	      0.30884590	      0.93202448	     -0.01671366	      5.53309053	     -6.28598889	    -11.04319341	      2.25234848	      0.03931090	      3.06019362	      0.51956669	     -7.49999987	      6.20893452	     -4.40852289	    -11.73698162	      0.76314961	      0.01331947	      6.45636479	     -0.53378721	     -7.49999987	      5.47092262	      3.43720825	     -4.93656275	     -0.00704769	     -0.01267158	     -0.00539874	     -2.89123731	      8.18501210	     -0.95780602	     28.93656730	    109.06953145	     -0.00805047	      0.02271371	     -0.00473774	     79.03661992	     76.73962298	    -12.37722815	      9.70177648	      2.67862192
